<svg width="24" height="25" viewBox="0 0 24 25" fill="none" xmlns="http://www.w3.org/2000/svg">
<path d="M3.245 4.16772C3.39927 3.72805 3.7171 3.5659 4.1702 3.57748C4.81696 3.59416 5.46512 3.58119 6.11234 3.58211C6.55155 3.58258 6.79663 3.75863 6.93794 4.1793C7.14967 4.80846 7.35815 5.43855 7.56895 6.0677C7.6996 6.45919 7.82654 6.55046 8.23934 6.55046C12.112 6.55046 15.9852 6.55046 19.8579 6.55185C19.9839 6.55185 20.1155 6.55324 20.235 6.58706C20.6511 6.70613 20.8535 7.1319 20.7081 7.57296C20.3643 8.61491 20.0164 9.65548 19.6703 10.6965C19.3752 11.5842 19.0791 12.4714 18.7835 13.3591C18.6376 13.7969 18.4069 13.9655 17.9519 13.9655C15.3852 13.9655 12.819 13.9655 10.2524 13.9655C9.85115 13.9655 9.71958 14.0698 9.62368 14.4613C9.58383 14.6239 9.53843 14.7851 9.50183 14.9487C9.4467 15.1956 9.59032 15.4022 9.84004 15.4356C9.91972 15.4462 10.0013 15.4458 10.0823 15.4458C12.9376 15.4462 15.7934 15.4462 18.6487 15.4458C18.854 15.4458 19.0513 15.462 19.2246 15.5912C19.4641 15.7696 19.5781 16.081 19.5053 16.3779C19.434 16.667 19.1801 16.8894 18.8785 16.9237C18.8155 16.9311 18.7516 16.9343 18.6881 16.9343C15.7865 16.9348 12.8844 16.9362 9.98273 16.9339C9.02046 16.933 8.27502 16.346 8.05449 15.4305C7.97804 15.1127 8.00908 14.8013 8.08136 14.4867C8.16753 14.111 8.26529 13.7339 8.30281 13.3517C8.32459 13.1307 8.26621 12.8898 8.19533 12.6739C7.40819 10.2888 6.61178 7.90653 5.81769 5.52379C5.70279 5.1791 5.55407 5.07115 5.19362 5.07069C4.81233 5.07022 4.43057 5.07069 4.04928 5.07069C3.6527 5.07022 3.43448 4.9229 3.27696 4.55226C3.27094 4.5379 3.25565 4.52724 3.245 4.51519C3.245 4.39937 3.245 4.28355 3.245 4.16772Z" fill="white"/>
<path d="M8.93372 20.6379C8.57096 20.5402 8.2448 20.3836 8.00388 20.0782C7.62213 19.5936 7.57626 18.9209 7.89594 18.3891C8.21422 17.8595 8.8355 17.5797 9.43964 17.6937C10.0327 17.8053 10.5168 18.2922 10.6243 18.8853C10.7605 19.6353 10.3093 20.3655 9.57678 20.5805C9.52304 20.5962 9.47115 20.6184 9.4188 20.6379C9.25757 20.6379 9.09541 20.6379 8.93372 20.6379Z" fill="white"/>
<path d="M17.8137 20.6379C17.451 20.5402 17.1248 20.3836 16.8839 20.0782C16.5021 19.5936 16.4563 18.9209 16.7759 18.3891C17.0942 17.8595 17.7155 17.5797 18.3196 17.6937C18.9127 17.8053 19.3968 18.2922 19.5043 18.8853C19.6405 19.6353 19.1893 20.3655 18.4568 20.5805C18.403 20.5962 18.3512 20.6184 18.2988 20.6379C18.1376 20.6379 17.9754 20.6379 17.8137 20.6379Z" fill="white"/>
</svg>
