<svg width="44" height="44" viewBox="0 0 44 44" fill="none" xmlns="http://www.w3.org/2000/svg">
<path d="M0 19.3866C0 20.2609 0 21.1363 0 22.0106C0.068882 22.4817 0.126995 22.955 0.206638 23.424C0.989067 28.0584 3.26747 31.8109 6.75988 34.8217C10.4869 38.034 14.8381 39.7717 19.6672 40.2669C23.1381 40.623 26.5487 40.2527 29.8603 39.099C30.1735 38.9905 30.3737 39.0234 30.6148 39.2502C32.1409 40.6843 33.9091 41.7 35.8862 42.3376C37.2724 42.7846 38.6941 43.0136 40.1503 42.9994C40.669 42.9939 41.0554 42.7408 41.2803 42.2664C41.5031 41.7964 41.4708 41.334 41.1533 40.9122C41.0145 40.7271 40.8617 40.5529 40.7131 40.3754C39.1892 38.5621 38.5693 36.4695 38.8308 34.0997C38.89 33.5661 39.0622 33.1213 39.427 32.6995C41.727 30.0393 43.2057 26.9716 43.7664 23.4568C44.2497 20.4285 43.9903 17.4704 42.9205 14.6097C40.9488 9.33758 37.2659 5.6804 32.3228 3.30729C27.7692 1.12153 22.9735 0.524418 18.012 1.36476C13.0408 2.20619 8.71971 4.37223 5.19394 8.06885C2.70782 10.6742 1.02781 13.742 0.335789 17.3323C0.204487 18.0127 0.110855 18.7007 0 19.3866ZM28.3611 20.6794C28.4601 18.4181 30.0777 16.8086 32.2324 16.7746C34.3257 16.7418 36.1176 18.5682 36.0789 20.6937C36.0369 22.966 34.3676 24.6346 32.1968 24.6116C29.9486 24.5875 28.4289 22.8477 28.3611 20.6794ZM21.9327 16.7659C24.1584 16.8678 25.7351 18.52 25.7663 20.709C25.7964 22.8422 24.0013 24.6642 21.9144 24.6226C19.6758 24.5776 18.0432 22.8718 18.0679 20.6674C18.0938 18.3731 19.8093 16.8338 21.9327 16.7659ZM15.4634 20.7167C15.3655 22.9769 13.749 24.5875 11.5933 24.6215C9.49999 24.6543 7.70804 22.829 7.74679 20.7024C7.78769 18.4301 9.45801 16.7615 11.6288 16.7845C13.8771 16.8086 15.3946 18.5495 15.4634 20.7167Z" fill="#00A1E4"/>
</svg>
