<svg width="24" height="25" viewBox="0 0 24 25" fill="none" xmlns="http://www.w3.org/2000/svg">
<path d="M3.245 7.79098C3.29116 7.67336 3.33733 7.55612 3.39376 7.41223C5.14776 9.00261 6.88636 10.5793 8.58863 12.1236C6.91159 13.6443 5.1717 15.2217 3.40445 16.8235C3.34033 16.6625 3.29245 16.543 3.245 16.4231C3.245 13.5461 3.245 10.6684 3.245 7.79098Z" fill="#00A1E4"/>
<path d="M20.755 16.4237C20.7088 16.5413 20.6627 16.6585 20.6062 16.8024C18.8523 15.212 17.1136 13.6354 15.4114 12.0914C17.0889 10.5707 18.8283 8.99327 20.5951 7.39148C20.6593 7.55212 20.7071 7.67164 20.755 7.79155C20.755 10.6685 20.755 13.5463 20.755 16.4237Z" fill="#00A1E4"/>
<path d="M19.8765 6.80761C19.8303 6.83768 19.779 6.86281 19.7393 6.89821C17.5535 8.82965 15.3673 10.7611 13.1841 12.6948C12.8233 13.0146 12.4087 13.2007 11.888 13.1695C11.4545 13.1436 11.1147 12.959 10.8146 12.6933C8.69976 10.8209 6.58283 8.94994 4.46589 7.07864C4.35731 6.98271 4.24274 6.89212 4.13074 6.79886C4.1333 6.78211 4.13544 6.76574 4.138 6.74899C4.31456 6.71207 4.49111 6.674 4.66809 6.63974C4.70614 6.63213 4.74761 6.63708 4.78736 6.63708C9.59621 6.63708 14.4046 6.63594 19.2135 6.64127C19.4294 6.64165 19.6448 6.70179 19.8607 6.73415C19.8663 6.75851 19.8714 6.78287 19.8765 6.80761Z" fill="#00A1E4"/>
<path d="M19.8161 17.4949C19.6204 17.5193 19.3818 17.5741 19.1428 17.5745C15.9281 17.5802 12.7138 17.5783 9.49908 17.5783C7.93746 17.5783 6.37583 17.5821 4.81421 17.5741C4.58892 17.573 4.36363 17.5151 4.17383 17.4885C5.92569 15.9 7.66386 14.3241 9.42 12.7318C9.66495 12.9514 9.87271 13.1597 10.1074 13.3409C10.3421 13.5221 10.5823 13.7124 10.8564 13.8357C11.8789 14.2971 13.0118 14.1155 13.8531 13.3812C14.0882 13.176 14.3173 12.9663 14.5713 12.7387C16.3227 14.3271 18.0609 15.903 19.8161 17.4949Z" fill="#00A1E4"/>
</svg>
