<svg width="24" height="25" viewBox="0 0 24 25" fill="none" xmlns="http://www.w3.org/2000/svg">
<path d="M3.245 7.79123C3.29116 7.67361 3.33733 7.55636 3.39376 7.41248C5.14775 9.00286 6.88636 10.5795 8.58862 12.1239C6.91158 13.6446 5.17169 15.222 3.40445 16.8238C3.34033 16.6628 3.29245 16.5433 3.245 16.4234C3.245 13.5464 3.245 10.6686 3.245 7.79123Z" fill="white"/>
<path d="M20.755 16.4237C20.7088 16.5413 20.6627 16.6586 20.6062 16.8025C18.8522 15.2121 17.1136 13.6354 15.4114 12.0915C17.0888 10.5707 18.8283 8.99328 20.5951 7.39148C20.6592 7.55212 20.7071 7.67164 20.755 7.79155C20.755 10.6686 20.755 13.5463 20.755 16.4237Z" fill="white"/>
<path d="M19.8765 6.80761C19.8303 6.83769 19.779 6.86281 19.7393 6.89821C17.5535 8.82966 15.3673 10.7611 13.1841 12.6949C12.8233 13.0146 12.4087 13.2007 11.888 13.1695C11.4545 13.1436 11.1146 12.959 10.8145 12.6933C8.69975 10.8209 6.58282 8.94995 4.46589 7.07864C4.35731 6.98272 4.24274 6.89212 4.13074 6.79886C4.1333 6.78211 4.13544 6.76574 4.138 6.74899C4.31456 6.71207 4.49111 6.674 4.66809 6.63974C4.70614 6.63213 4.74761 6.63708 4.78736 6.63708C9.5962 6.63708 14.4046 6.63594 19.2135 6.64127C19.4293 6.64165 19.6448 6.70179 19.8607 6.73415C19.8662 6.75851 19.8714 6.78287 19.8765 6.80761Z" fill="white"/>
<path d="M19.8162 17.495C19.6205 17.5193 19.3819 17.5741 19.1429 17.5745C15.9282 17.5802 12.7139 17.5783 9.4992 17.5783C7.93757 17.5783 6.37595 17.5821 4.81433 17.5741C4.58904 17.573 4.36376 17.5151 4.17395 17.4885C5.92581 15.9 7.66398 14.3241 9.42011 12.7318C9.66506 12.9515 9.87282 13.1597 10.1075 13.3409C10.3422 13.5221 10.5825 13.7124 10.8565 13.8357C11.879 14.2971 13.0119 14.1155 13.8532 13.3812C14.0883 13.176 14.3174 12.9663 14.5714 12.7387C16.3228 14.3271 18.061 15.9031 19.8162 17.495Z" fill="white"/>
</svg>
