<svg width="24" height="25" viewBox="0 0 24 25" fill="none" xmlns="http://www.w3.org/2000/svg">
<path d="M3.245 7.14823C3.28943 6.88608 3.32148 6.62094 3.38173 6.36263C3.46889 5.98819 3.66459 5.67054 3.93676 5.399C4.44566 4.8922 4.95968 4.38968 5.46088 3.8752C6.19281 3.12376 7.30374 3.23306 7.96133 3.88075C8.74539 4.65268 9.52219 5.43272 10.2973 6.21362C10.9997 6.92151 11.0083 7.97054 10.3092 8.61738C10.167 8.74888 9.98536 8.85305 9.80377 8.92478C9.32137 9.11435 8.9398 9.40297 8.73385 9.89141C8.60353 10.2005 8.58046 10.5152 8.66634 10.8422C8.91972 11.8054 9.46579 12.597 10.1238 13.3194C10.8002 14.0623 11.5663 14.6963 12.4773 15.137C12.8887 15.3359 13.313 15.505 13.7882 15.4316C14.3667 15.3423 14.806 15.0571 15.0653 14.5213C15.0999 14.4496 15.1307 14.3761 15.1602 14.3023C15.5763 13.2537 16.8787 12.9194 17.7316 13.6635C18.1644 14.0414 18.5571 14.4658 18.9638 14.8735C19.439 15.3496 19.9312 15.8107 20.3756 16.3145C20.8674 16.8725 20.8734 17.7538 20.4384 18.3596C20.3491 18.4839 20.2487 18.6021 20.141 18.711C19.68 19.1772 19.2074 19.6324 18.7528 20.1046C18.3481 20.5251 17.864 20.7681 17.2863 20.8325C17.2598 20.8355 17.2346 20.8522 17.209 20.8624C16.9466 20.8624 16.6843 20.8624 16.4219 20.8624C16.1104 20.8009 15.7955 20.7535 15.4883 20.675C14.2056 20.3458 13.0481 19.7408 11.9415 19.0321C10.5972 18.1705 9.37563 17.156 8.24462 16.0319C6.63462 14.4316 5.23228 12.6747 4.21578 10.633C3.83464 9.86792 3.52316 9.07464 3.37104 8.22799C3.31934 7.93766 3.28644 7.64477 3.245 7.35316C3.245 7.28485 3.245 7.21654 3.245 7.14823Z" fill="white"/>
</svg>
